<svg id="コメントアイコン7_1_" data-name="コメントアイコン7 (1)" xmlns="http://www.w3.org/2000/svg" width="49.446" height="36.081" viewBox="0 0 49.446 36.081">
  <path id="パス_14" data-name="パス 14" d="M117.362,200.464a3.677,3.677,0,1,0,3.674,3.676A3.677,3.677,0,0,0,117.362,200.464Z" transform="translate(-103.169 -188.438)" fill="#fff"/>
  <path id="パス_15" data-name="パス 15" d="M231.206,200.464a3.677,3.677,0,1,0,3.676,3.676A3.676,3.676,0,0,0,231.206,200.464Z" transform="translate(-206.484 -188.438)" fill="#fff"/>
  <path id="パス_16" data-name="パス 16" d="M345.036,200.464a3.677,3.677,0,1,0,3.676,3.676A3.676,3.676,0,0,0,345.036,200.464Z" transform="translate(-309.785 -188.438)" fill="#fff"/>
  <path id="パス_17" data-name="パス 17" d="M49.443,76.442a15.1,15.1,0,0,0-4.7-10.786A16.084,16.084,0,0,0,33.51,61.18H15.933C7.148,61.182,0,68.034,0,76.455S7.148,91.731,15.933,91.733H30.409a.5.5,0,0,1,.414.172.616.616,0,0,1,.059.532A6.472,6.472,0,0,1,30.1,93.9c-.351.556-.675,1.024-.745,1.123-.49.705-.659,1.3-.476,1.683.139.287.483.463,1.024.525a6.566,6.566,0,0,0,.676.034c.125,0,.248,0,.355-.012a22.034,22.034,0,0,0,4.407-.773A19.89,19.89,0,0,0,44.6,90.863c3.18-3.511,4.855-8.38,4.848-14.082Zm-4.93,9.551a15.241,15.241,0,0,1-7.357,6.834A19.113,19.113,0,0,1,33.6,94.04l-.322.076.209-.436A4.941,4.941,0,0,0,33.7,93.2a3.621,3.621,0,0,0,.236-1.188,2.7,2.7,0,0,0-.269-1.169,3.124,3.124,0,0,0-1.477-1.421,5.511,5.511,0,0,0-2.424-.481H15.933a13.235,13.235,0,0,1-9.208-3.658,12.125,12.125,0,0,1,0-17.66,13.238,13.238,0,0,1,9.208-3.657H33.51a13.169,13.169,0,0,1,9.177,3.655,12.4,12.4,0,0,1,3.848,8.845l0,.312A19.751,19.751,0,0,1,44.513,85.993Z" transform="translate(0 -61.18)" fill="#fff"/>
</svg>
