<svg xmlns="http://www.w3.org/2000/svg" width="14.303" height="14.413" viewBox="0 0 14.303 14.413">
  <path id="パス_37" data-name="パス 37" d="M12.368,10.576h0c-.145.222-.171.141-.338.346l-.956-.956c.041-.054.082-.108.122-.163.027-.037.053-.074.079-.112l.013-.018c.026-.038.052-.077.077-.115.055-.083.107-.168.157-.254a6.175,6.175,0,0,0,0-6.24A6.233,6.233,0,0,0,9.3.846a6.175,6.175,0,0,0-6.24,0L2.952.914,2.811,1c-.083.054-.165.11-.245.168l-.08.059L2.4,1.294l-.077.061c-.05.04-.1.081-.149.123a6.194,6.194,0,0,0-.7.7c-.042.049-.083.1-.123.149L1.294,2.4l-.063.083-.059.08c-.058.08-.114.162-.168.245-.03.047-.06.094-.09.142s-.046.074-.068.112a6.175,6.175,0,0,0,0,6.24,6.233,6.233,0,0,0,2.218,2.218,6.175,6.175,0,0,0,6.24,0q.086-.05.17-.1l.084-.054.115-.077.018-.013L9.8,11.2c.055-.04.109-.081.163-.122l.956.956c-.205.167-.124.193-.346.338l2.3,1.815a1.051,1.051,0,0,0,1.311,0C14.8,13.571,12.871,10.941,12.368,10.576ZM8.646,9.818l-.038.026-.044.029-.04.026-.052.032-.049.03-.107.061-.009,0-.088.047-.035.019-.071.035q-.068.034-.137.065a4.388,4.388,0,0,1-3.582,0A4.415,4.415,0,0,1,2.175,7.975a4.377,4.377,0,0,1,.232-4.029l.03-.049c.028-.046.057-.092.087-.137.017-.026.034-.051.052-.076s.043-.062.066-.093c.034-.047.07-.094.106-.139a4.44,4.44,0,0,1,.7-.7c.046-.036.092-.072.139-.106q.046-.034.093-.066l.076-.052c.045-.03.091-.06.137-.087l.049-.03a4.39,4.39,0,0,1,6.247,5.568q-.031.069-.065.137l-.035.071c-.006.012-.012.024-.019.035-.015.03-.031.059-.047.088l0,.009c-.02.036-.04.071-.061.107l-.03.049L9.9,8.524l-.026.04c-.009.015-.019.03-.029.044l-.026.038-.026.038a.188.188,0,0,1-.016.022l-.031.045a4.16,4.16,0,0,1-.261.327l-.051.057-.066.072-.08.082-.082.08-.072.066-.057.051a4.16,4.16,0,0,1-.327.261l-.045.031-.022.016Z" transform="translate(0 0)" fill="#8c8c8c"/>
</svg>
