<svg xmlns="http://www.w3.org/2000/svg" width="18.88" height="14.736" viewBox="0 0 18.88 14.736">
  <path id="パス_33" data-name="パス 33" d="M18.833,58.186A2.478,2.478,0,0,0,18.32,57.1a2.09,2.09,0,0,0-.167-.185,2.487,2.487,0,0,0-1.753-.726H2.48a2.463,2.463,0,0,0-1.753.727,2.175,2.175,0,0,0-.169.187,2.448,2.448,0,0,0-.51,1.085A2.4,2.4,0,0,0,0,58.668v9.777A2.493,2.493,0,0,0,.726,70.2c.056.056.111.107.171.157a2.486,2.486,0,0,0,1.582.57H16.4a2.467,2.467,0,0,0,1.584-.574,2.146,2.146,0,0,0,.169-.153,2.465,2.465,0,0,0,.508-.732l.016-.039a2.445,2.445,0,0,0,.2-.982V58.668A2.541,2.541,0,0,0,18.833,58.186ZM1.284,57.77a1.166,1.166,0,0,1,.137-.162A1.488,1.488,0,0,1,2.48,57.17H16.4a1.477,1.477,0,0,1,1.059.44,1.5,1.5,0,0,1,.135.158l.106.143-7.43,6.476a1.263,1.263,0,0,1-1.66,0L1.187,57.912Zm-.3,10.76a.592.592,0,0,1,0-.086V58.87L6.748,63.9,1.04,68.877Zm16.156,1.214a1.488,1.488,0,0,1-.743.2H2.48a1.487,1.487,0,0,1-.743-.2L1.5,69.61,7.4,64.47l.646.562a2.121,2.121,0,0,0,2.787,0l.646-.562,5.9,5.14Zm.755-1.3a.619.619,0,0,1,0,.085l-.051.349L12.132,63.9l5.766-5.03Z" transform="translate(0 -56.188)" fill="#8c8c8c"/>
</svg>
