<svg xmlns="http://www.w3.org/2000/svg" width="16.004" height="16.004" viewBox="0 0 16.004 16.004">
  <path id="パス_36" data-name="パス 36" d="M14.616,3.5c-.143-.208-.292-.408-.452-.6A8,8,0,0,0,1.84,2.9c-.16.192-.31.392-.452.6a8.011,8.011,0,0,0,0,9.009c.143.208.293.408.453.6a8,8,0,0,0,12.328,0q.24-.289.453-.6a8.011,8.011,0,0,0,0-9.009Zm-.127,4.13H12.056A11.931,11.931,0,0,0,11.7,5.04a9.423,9.423,0,0,0,1.673-.692A6.443,6.443,0,0,1,14.489,7.626ZM8.376,1.587A3.173,3.173,0,0,1,10.218,3.27a7.5,7.5,0,0,1,.546,1.246,12.027,12.027,0,0,1-2.388.307Zm-.75,0V4.823a12.032,12.032,0,0,1-2.388-.307A7.5,7.5,0,0,1,5.785,3.27,3.175,3.175,0,0,1,7.626,1.587Zm0,3.986V7.626H4.7A11.163,11.163,0,0,1,5.025,5.24,12.766,12.766,0,0,0,7.626,5.574Zm0,2.8V10.43a12.711,12.711,0,0,0-2.6.333A11.185,11.185,0,0,1,4.7,8.376Zm0,2.8v3.234a3.176,3.176,0,0,1-1.842-1.683,7.479,7.479,0,0,1-.545-1.244A12.016,12.016,0,0,1,7.626,11.18Zm.75,3.234V11.18a11.991,11.991,0,0,1,2.387.307,7.456,7.456,0,0,1-.545,1.244A3.173,3.173,0,0,1,8.376,14.415Zm0-3.984V8.376H11.3a11.18,11.18,0,0,1-.322,2.386A12.694,12.694,0,0,0,8.376,10.43Zm0-2.8V5.574a12.745,12.745,0,0,0,2.6-.333A11.2,11.2,0,0,1,11.3,7.626Zm4.532-3.883a8.833,8.833,0,0,1-1.418.572,6.9,6.9,0,0,0-1.363-2.457A6.514,6.514,0,0,1,12.908,3.743ZM5.875,1.858A6.906,6.906,0,0,0,4.512,4.315a8.826,8.826,0,0,1-1.419-.572A6.527,6.527,0,0,1,5.875,1.858ZM4.3,5.039a11.937,11.937,0,0,0-.353,2.587H1.515a6.47,6.47,0,0,1,1.111-3.28A9.468,9.468,0,0,0,4.3,5.039ZM1.515,8.376H3.947A11.915,11.915,0,0,0,4.3,10.964a9.374,9.374,0,0,0-1.673.694A6.456,6.456,0,0,1,1.515,8.376ZM3.1,12.26a8.891,8.891,0,0,1,1.417-.572,6.9,6.9,0,0,0,1.365,2.458A6.524,6.524,0,0,1,3.1,12.26Zm7.03,1.886a6.907,6.907,0,0,0,1.365-2.457,8.885,8.885,0,0,1,1.415.571A6.5,6.5,0,0,1,10.125,14.146ZM11.7,10.963a11.937,11.937,0,0,0,.353-2.587h2.433a6.447,6.447,0,0,1-1.116,3.279A9.4,9.4,0,0,0,11.7,10.963Z" fill="#8c8c8c"/>
</svg>
