<svg xmlns="http://www.w3.org/2000/svg" width="18.83" height="17.861" viewBox="0 0 18.83 17.861">
  <path id="パス_32" data-name="パス 32" d="M18.707,16.234a.423.423,0,0,0-.3-.122,10.39,10.39,0,0,0-1.848.183c0-.86,0-2.517,0-2.6a.527.527,0,0,0-.156-.377.54.54,0,0,0-.195-.12.568.568,0,0,0-.184-.031.533.533,0,0,0-.213.043A10.765,10.765,0,0,0,13.67,14.48a13.911,13.911,0,0,0-2.8,2.775A8.816,8.816,0,0,0,9.927,18.8a5.1,5.1,0,0,0-.386,1.155H9.287a5.714,5.714,0,0,0-.649-1.673,12.206,12.206,0,0,0-2.451-2.963A12.015,12.015,0,0,0,3.01,13.215a.532.532,0,0,0-.212-.043.554.554,0,0,0-.162.024.542.542,0,0,0-.131.059.518.518,0,0,0-.177.187.528.528,0,0,0-.065.258c0,.079,0,1.736,0,2.6a10.407,10.407,0,0,0-1.848-.183A.419.419,0,0,0,0,16.53v10.3a.418.418,0,0,0,.36.414,12.757,12.757,0,0,1,1.865.428,15.682,15.682,0,0,1,3.08,1.3,10.084,10.084,0,0,1,1.338.89,5.858,5.858,0,0,1,1.007,1,.42.42,0,0,0,.333.165h2.864a.42.42,0,0,0,.333-.165A6.441,6.441,0,0,1,12.6,29.554a13.635,13.635,0,0,1,2.967-1.526,14.251,14.251,0,0,1,2.9-.78.418.418,0,0,0,.36-.414V16.53A.423.423,0,0,0,18.707,16.234ZM7.69,29.669a8.431,8.431,0,0,0-.981-.8,14.421,14.421,0,0,0-3.153-1.625,15.65,15.65,0,0,0-2.718-.768V16.962a11.89,11.89,0,0,1,1.764.25.4.4,0,0,0,.089.009l0,.018a9.138,9.138,0,0,1,3.185,1.289A5.324,5.324,0,0,1,7.69,20.455v9.214ZM6.2,18.041A9.593,9.593,0,0,0,3.1,16.732c0-.079,0-.219,0-.4,0-.581,0-1.564,0-2.151a10.633,10.633,0,0,1,1.559.971,13.08,13.08,0,0,1,2.632,2.6,7.992,7.992,0,0,1,.85,1.4,4.154,4.154,0,0,1,.34,1.055h-.26A5.889,5.889,0,0,0,6.2,18.041ZM10.554,30.2H8.276v-9.4h2.278Zm.054-9.987h-.261a4.754,4.754,0,0,1,.576-1.514,11.39,11.39,0,0,1,2.281-2.75,11.818,11.818,0,0,1,2.526-1.764c0,.3,0,.707,0,1.11,0,.625,0,1.24,0,1.443a9.6,9.6,0,0,0-3.092,1.308A5.888,5.888,0,0,0,10.607,20.208Zm7.385,6.268a14.323,14.323,0,0,0-1.631.4,16.48,16.48,0,0,0-3.248,1.371,11.029,11.029,0,0,0-1.45.966q-.276.22-.524.457V20.455a5.324,5.324,0,0,1,1.819-1.926,9.127,9.127,0,0,1,3.185-1.289l0-.018a.4.4,0,0,0,.089-.009,11.9,11.9,0,0,1,1.764-.25v9.515Z" transform="translate(0 -13.172)" fill="#8c8c8c"/>
</svg>
